<svg width="17" height="20" viewBox="0 0 17 20" fill="none" xmlns="http://www.w3.org/2000/svg">
<path d="M14.1957 19.1976C13.1069 20.253 11.9182 20.0864 10.7739 19.5864C9.56293 19.0754 8.45196 19.0532 7.17434 19.5864C5.57454 20.2752 4.7302 20.0752 3.77477 19.1976C-1.64677 13.6094 -0.84687 5.09936 5.30791 4.78828C6.80772 4.86605 7.85203 5.6104 8.7297 5.67706C10.0406 5.41043 11.296 4.64386 12.6959 4.74385C14.3734 4.87716 15.6399 5.54374 16.4732 6.74359C13.0069 8.82111 13.8291 13.3872 17.0064 14.6648C16.3732 16.3313 15.5511 17.9866 14.1846 19.2087L14.1957 19.1976ZM8.6186 4.72163C8.45196 2.24416 10.4628 0.199975 12.7736 0C13.0958 2.8663 10.174 4.99937 8.6186 4.72163Z" fill="#84A500"/>
</svg>
