<?xml version="1.0" encoding="UTF-8"?>
<svg width="24" height="24" viewBox="0 0 24 24" fill="none" xmlns="http://www.w3.org/2000/svg">
  <path d="M17.0825 12.4582C17.0671 10.5262 18.6516 9.43323 18.7363 9.37988C17.8016 8.00543 16.3095 7.80005 15.7873 7.78428C14.4952 7.64674 13.2421 8.54674 12.5841 8.54674C11.9103 8.54674 10.8873 7.79952 9.79365 7.82056C8.37682 7.84159 7.06428 8.65738 6.33809 9.94103C4.83174 12.5525 5.95936 16.3894 7.40253 18.2793C8.11761 19.2056 8.94444 20.2477 10.0341 20.2109C11.0952 20.1688 11.5071 19.5424 12.7865 19.5424C14.0501 19.5424 14.4357 20.2109 15.5476 20.1846C16.6911 20.1635 17.4173 19.2424 18.1113 18.3056C18.9222 17.2214 19.2524 16.1635 19.2683 16.1109C19.2365 16.1003 17.1008 15.2951 17.0825 12.4582Z" fill="black"/>
  <path d="M15.3857 6.12007C15.9659 5.40007 16.3619 4.41165 16.2508 3.41165C15.4032 3.44848 14.3429 3.99638 13.7365 4.69638C13.1984 5.31165 12.7206 6.33165 12.8476 7.29638C13.7889 7.37007 14.7786 6.82533 15.3857 6.12007Z" fill="black"/>
</svg> 