<svg width="155" height="155" viewBox="0 0 155 155" fill="none" xmlns="http://www.w3.org/2000/svg">
<path d="M18.5 77H136" stroke="#84A500" stroke-width="0.2"/>
<path d="M26.3711 106.375L128.129 47.625" stroke="#84A500" stroke-width="0.2"/>
<path d="M128.129 106.375L26.3709 47.625" stroke="#84A500" stroke-width="0.2"/>
<path d="M47.875 127.879L106.625 26.1209" stroke="#84A500" stroke-width="0.2"/>
<path d="M77.25 135.75V18.25" stroke="#84A500" stroke-width="0.2"/>
<path d="M106.625 127.879L47.875 26.1209" stroke="#84A500" stroke-width="0.2"/>
<path d="M23.5282 85.1455C25.0634 95.496 29.5358 105.189 36.4148 113.074C43.2937 120.958 52.2904 126.704 62.3371 129.629C72.3838 132.553 83.0586 132.534 93.0947 129.574C103.131 126.613 112.107 120.835 118.958 112.926C125.808 105.017 130.246 95.3079 131.744 84.952C133.242 74.5961 131.738 64.0278 127.41 54.5013C123.081 44.9748 116.11 36.8901 107.325 31.2067C98.5391 25.5233 88.3073 22.4798 77.8437 22.4374L77.8105 30.6402C86.7045 30.6762 95.4016 33.2632 102.869 38.0941C110.337 42.925 116.262 49.797 119.941 57.8945C123.621 65.992 124.899 74.9751 123.626 83.7776C122.353 92.5801 118.58 100.833 112.757 107.555C106.934 114.278 99.3046 119.189 90.7739 121.706C82.2431 124.222 73.1695 124.239 64.6298 121.753C56.0902 119.267 48.443 114.383 42.5959 107.681C36.7487 100.979 32.9472 92.74 31.6423 83.9421L23.5282 85.1455Z" fill="url(#paint0_linear_559_1460)"/>
<path d="M57.3149 111.814C62.3794 114.956 68.0987 116.89 74.0305 117.468C79.9623 118.046 85.9474 117.251 91.523 115.146C97.0986 113.041 102.115 109.681 106.185 105.327C110.254 100.972 113.267 95.7403 114.991 90.0352C116.715 84.3302 117.103 78.305 116.126 72.4258C115.149 66.5466 112.833 60.971 109.356 56.1303C105.879 51.2896 101.336 47.3136 96.0765 44.5098C90.8173 41.706 84.9837 40.1496 79.0268 39.961L78.7704 48.0611C83.4848 48.2103 88.1017 49.4421 92.2639 51.6611C96.4261 53.8801 100.022 57.0268 102.774 60.8579C105.525 64.6889 107.358 69.1016 108.132 73.7545C108.905 78.4075 108.598 83.176 107.233 87.6911C105.869 92.2062 103.484 96.347 100.264 99.7931C97.0431 103.239 93.0729 105.898 88.6602 107.564C84.2475 109.231 79.5107 109.859 74.8162 109.402C70.1216 108.945 65.5952 107.414 61.587 104.927L57.3149 111.814Z" fill="url(#paint1_linear_559_1460)"/>
<path d="M81.0936 100.914C87.0603 99.9266 92.4399 96.7375 96.1696 91.9766C99.8993 87.2158 101.708 81.2293 101.238 75.1996C100.769 69.17 98.0551 63.5357 93.6332 59.4097C89.2114 55.2837 83.403 52.9659 77.3553 52.9143L77.3034 58.9949C81.8291 59.0336 86.1757 60.768 89.4847 63.8557C92.7937 66.9433 94.8245 71.1596 95.1759 75.6718C95.5273 80.184 94.1738 84.6638 91.3827 88.2266C88.5917 91.7893 84.566 94.1758 80.1009 94.9146L81.0936 100.914Z" fill="url(#paint2_linear_559_1460)"/>
<circle cx="77.4747" cy="76.9742" r="58.6093" stroke="#6D8900" stroke-width="0.363657" stroke-linejoin="round" stroke-dasharray="1.21 1.21"/>
<circle cx="77.4755" cy="76.974" r="10.1218" stroke="#6D8900" stroke-width="0.363657"/>
<path d="M77 18L77 67" stroke="#2E3900" stroke-width="0.5"/>
<defs>
<linearGradient id="paint0_linear_559_1460" x1="50" y1="120" x2="69" y2="26" gradientUnits="userSpaceOnUse">
<stop stop-color="#9FC700"/>
<stop offset="1" stop-color="#F7FFD9"/>
</linearGradient>
<linearGradient id="paint1_linear_559_1460" x1="92.501" y1="107.5" x2="77.001" y2="47.5" gradientUnits="userSpaceOnUse">
<stop stop-color="#9FC700"/>
<stop offset="1" stop-color="#F7FFD9"/>
</linearGradient>
<linearGradient id="paint2_linear_559_1460" x1="90.5" y1="90.5" x2="78" y2="58" gradientUnits="userSpaceOnUse">
<stop stop-color="#9FC700"/>
<stop offset="1" stop-color="#F7FFD9"/>
</linearGradient>
</defs>
</svg>
