<svg width="229" height="85" viewBox="0 0 229 85" fill="none" xmlns="http://www.w3.org/2000/svg">
<path d="M114.507 1.00173C113.443 1.00176 111.742 0.85992 110.607 3.12889C109.189 5.9651 110.962 7.38321 111.671 9.51037C112.238 11.2121 111.316 12.3466 110.962 12.7011C110.134 13.4102 108.834 14.8283 107.416 14.8283C105.644 14.8283 104.226 15.1828 103.162 17.31C102.098 19.4371 102.453 24.046 102.098 25.8186V25.8186C101.916 26.7326 101.38 27.6292 100.852 28.3976C99.858 29.8452 98.6214 32.1453 98.1987 34.6818C97.4896 38.9361 93.9444 42.1268 93.5898 43.1904C93.7057 43.538 94.2759 43.8855 95.6345 42.5628C95.6722 42.526 95.7359 42.5403 95.7476 42.5917C96.0078 43.7327 95.0882 46.4613 95.3625 46.7356C95.6793 47.0525 95.9962 47.3694 96.313 47.4331C96.3827 47.4472 96.4493 47.4102 96.488 47.3505C97.437 45.8898 98.9077 42.8053 98.9077 41.4177C98.9077 39.6451 99.2623 38.9361 99.6168 38.5815C99.9284 38.2699 103.253 34.9454 104.294 30.5339C104.585 29.3019 104.716 28.0308 105.093 26.8222C105.483 25.5708 105.833 24.7312 105.998 24.4005C106.116 25.9368 106.882 29.1718 107.062 30.4274C107.416 32.9091 104.935 44.6085 105.644 47.0902C106.353 49.5719 108.48 57.0169 108.48 59.8531C108.48 62.6893 107.771 68.0072 107.771 69.0708C107.771 70.1344 109.544 75.0978 109.898 77.2249C110.253 79.3521 109.898 80.7702 109.898 81.1247C109.898 81.4792 104.935 82.8973 105.289 83.6064C105.573 84.1736 108.834 83.9609 109.189 83.9609H111.714C112.088 83.9609 112.398 83.6698 112.426 83.2964C112.546 81.6568 112.692 80.0379 112.38 77.2249C112.256 76.1107 112.38 71.5525 112.734 69.4253C113.089 67.2982 114.507 55.9533 113.443 53.4717C113.246 53.0108 112.734 48.5083 113.798 45.6721L114.507 44.254L115.216 45.6721" stroke="#6D8900" stroke-width="0.709053"/>
<path d="M115.249 45.672C116.313 48.5082 115.801 53.0108 115.604 53.4716C114.54 55.9533 115.958 67.2981 116.313 69.4253C116.667 71.5524 116.791 76.1106 116.667 77.2249C116.355 80.0378 116.501 81.6568 116.621 83.2963C116.649 83.6697 116.959 83.9609 117.333 83.9609H119.858C120.212 83.9609 123.474 84.1736 123.758 83.6063C124.112 82.8973 119.149 81.4792 119.149 81.1247C119.149 80.7701 118.794 79.352 119.149 77.2249C119.503 75.0977 121.276 70.1343 121.276 69.0708C121.276 68.0072 120.567 62.6893 120.567 59.8531C120.567 57.0169 123.403 49.6711 123.403 47.0901C123.403 42.8358 121.631 32.9091 121.985 30.4274C122.164 29.1717 122.93 25.9367 123.049 24.4004C123.214 24.7311 123.564 25.5707 123.954 26.8222C124.331 28.0307 124.462 29.3018 124.753 30.5338C125.794 34.9453 129.118 38.2699 129.43 38.5815C129.785 38.936 130.139 39.6451 130.139 41.4177C130.139 42.8052 131.61 45.8897 132.559 47.3504C132.598 47.4101 132.664 47.4471 132.734 47.4331C133.051 47.3693 133.368 47.0524 133.684 46.7356C133.959 46.4612 133.039 43.7326 133.299 42.5916C133.311 42.5403 133.375 42.526 133.412 42.5627C134.771 43.8855 135.341 43.5379 135.457 43.1903C135.103 42.1267 131.557 38.936 130.848 34.6817C130.425 32.1452 129.189 29.8451 128.195 28.3976C127.667 27.6291 127.131 26.7326 126.948 25.8185V25.8185C126.594 24.0459 126.948 19.4371 125.885 17.3099C124.821 15.1827 123.403 14.8282 121.631 14.8282C120.212 14.8282 118.912 13.4101 118.085 12.7011C117.731 12.3465 116.42 11.2121 116.988 9.51037C117.697 7.38321 119.503 5.9651 118.085 3.12889C116.951 0.85992 115.569 1.00176 114.506 1.00173" stroke="#6D8900" stroke-width="0.709053"/>
<rect x="53" y="59" width="2" height="22" rx="1" transform="rotate(-180 53 59)" fill="#BCDF34"/>
<rect x="12" y="57" width="2" height="21" rx="1" transform="rotate(-180 12 57)" fill="#BCDF34"/>
<rect x="61" y="26" width="2.00001" height="25" rx="1" fill="#BCDF34"/>
<rect x="20" y="26" width="2" height="25" rx="1" fill="#BCDF34"/>
<rect x="43" y="64" width="2" height="10" rx="1" transform="rotate(-180 43 64)" fill="#BCDF34"/>
<rect x="2" y="64" width="2" height="10" rx="1" transform="rotate(-180 2 64)" fill="#BCDF34"/>
<rect x="71" y="22" width="3" height="10" rx="1.5" fill="#BCDF34"/>
<rect x="30" y="22" width="3" height="10" rx="1.5" fill="#BCDF34"/>
<rect x="53" y="34" width="2" height="5" rx="1" transform="rotate(-180 53 34)" fill="#6D8900"/>
<rect x="12" y="34" width="2" height="7" rx="1" transform="rotate(-180 12 34)" fill="#6D8900"/>
<rect x="61" y="53" width="2" height="8" rx="1" fill="#6D8900"/>
<rect x="20" y="53" width="2" height="8" rx="1" fill="#6D8900"/>
<rect x="43" y="53" width="2" height="31" rx="1" transform="rotate(-180 43 53)" fill="#6D8900"/>
<rect x="2" y="53" width="2" height="31" rx="1" transform="rotate(-180 2 53)" fill="#6D8900"/>
<rect x="71" y="33" width="3.00001" height="31" rx="1.5" fill="#6D8900"/>
<rect x="30" y="33" width="3.00001" height="31" rx="1.5" fill="#6D8900"/>
<rect x="208" y="59" width="2" height="22" rx="1" transform="rotate(-180 208 59)" fill="#BCDF34"/>
<rect x="167" y="57" width="2" height="21" rx="1" transform="rotate(-180 167 57)" fill="#BCDF34"/>
<rect x="216" y="26" width="2.00001" height="25" rx="1" fill="#BCDF34"/>
<rect x="175" y="26" width="2" height="25" rx="1" fill="#BCDF34"/>
<rect x="198" y="64" width="2" height="10" rx="1" transform="rotate(-180 198 64)" fill="#BCDF34"/>
<rect x="157" y="64" width="2" height="10" rx="1" transform="rotate(-180 157 64)" fill="#BCDF34"/>
<rect x="226" y="22" width="3" height="10" rx="1.5" fill="#BCDF34"/>
<rect x="185" y="22" width="3" height="10" rx="1.5" fill="#BCDF34"/>
<rect x="208" y="34" width="2" height="5" rx="1" transform="rotate(-180 208 34)" fill="#6D8900"/>
<rect x="167" y="34" width="2" height="7" rx="1" transform="rotate(-180 167 34)" fill="#6D8900"/>
<rect x="216" y="53" width="2" height="8" rx="1" fill="#6D8900"/>
<rect x="175" y="53" width="2" height="8" rx="1" fill="#6D8900"/>
<rect x="198" y="53" width="2" height="31" rx="1" transform="rotate(-180 198 53)" fill="#6D8900"/>
<rect x="157" y="53" width="2" height="31" rx="1" transform="rotate(-180 157 53)" fill="#6D8900"/>
<rect x="226" y="33" width="3.00001" height="31" rx="1.5" fill="#6D8900"/>
<rect x="185" y="33" width="3.00001" height="31" rx="1.5" fill="#6D8900"/>
</svg>
