<svg width="17" height="18" viewBox="0 0 17 18" fill="none" xmlns="http://www.w3.org/2000/svg">
<path d="M15.6251 17.6992C13.7046 17.6992 11.8071 17.2528 9.93275 16.3599C8.05835 15.4671 6.35296 14.201 4.81658 12.5615C3.28019 10.922 2.09348 9.10295 1.25646 7.10426C0.419434 5.10556 0.000614555 3.08163 0 1.03245C0 0.737466 0.0921832 0.491644 0.27655 0.294986C0.460916 0.0983288 0.691375 0 0.967924 0H4.70135C4.91644 0 5.10849 0.0780074 5.27749 0.234022C5.44649 0.390038 5.54636 0.57424 5.57709 0.78663L6.17628 4.22814C6.20701 4.49035 6.19932 4.71159 6.15323 4.89186C6.10714 5.07213 6.02264 5.22781 5.89973 5.35892L3.66428 7.76798C3.97156 8.37434 4.3363 8.96005 4.7585 9.52511C5.1807 10.0902 5.64561 10.6352 6.15323 11.1603C6.62951 11.6684 7.12884 12.1397 7.65121 12.5743C8.17358 13.0089 8.72668 13.4061 9.31051 13.766L11.4768 11.4553C11.6151 11.3078 11.7958 11.1974 12.0189 11.1239C12.2419 11.0505 12.4607 11.0299 12.6752 11.062L15.8555 11.7503C16.0706 11.8158 16.2473 11.9348 16.3856 12.1072C16.5238 12.2796 16.593 12.472 16.593 12.6844V16.6667C16.593 16.9617 16.5008 17.2075 16.3164 17.4042C16.1321 17.6009 15.9016 17.6992 15.6251 17.6992Z" fill="#9FC700"/>
</svg>
