<svg width="22" height="22" viewBox="0 0 22 22" fill="none" xmlns="http://www.w3.org/2000/svg">
<path d="M11 8.25C9.5095 8.25 8.25 9.5095 8.25 11C8.25 12.4905 9.5095 13.75 11 13.75C12.4905 13.75 13.75 12.4905 13.75 11C13.75 9.5095 12.4905 8.25 11 8.25Z" fill="#6D8900"/>
<path d="M18.334 4.58325H15.9635L13.4821 2.10184C13.3102 1.92992 13.0771 1.8333 12.834 1.83325H9.16732C8.92422 1.8333 8.6911 1.92992 8.51923 2.10184L6.03782 4.58325H3.66732C2.65623 4.58325 1.83398 5.4055 1.83398 6.41659V16.4999C1.83398 17.511 2.65623 18.3333 3.66732 18.3333H18.334C19.3451 18.3333 20.1673 17.511 20.1673 16.4999V6.41659C20.1673 5.4055 19.3451 4.58325 18.334 4.58325ZM11.0007 15.5833C8.51648 15.5833 6.41732 13.4841 6.41732 10.9999C6.41732 8.51575 8.51648 6.41659 11.0007 6.41659C13.4848 6.41659 15.584 8.51575 15.584 10.9999C15.584 13.4841 13.4848 15.5833 11.0007 15.5833Z" fill="#6D8900"/>
</svg>
