<svg width="481" height="686" viewBox="0 0 481 686" fill="none" xmlns="http://www.w3.org/2000/svg">
<g style="mix-blend-mode:color">
<path fill-rule="evenodd" clip-rule="evenodd" d="M480.375 0H0V178.875C4.83333 180.375 15.4 183.675 19 184.875C23.5 186.375 49 192.375 51.5 192.875C54 193.375 59.5 196.875 65 200.375C67.164 201.752 70.1022 202.974 73.327 204.316C78.2983 206.384 83.951 208.736 88.5 212.375C96 218.375 152.5 247.875 156.5 249.875C160.5 251.875 168 260.375 171.5 264.375C173.133 266.242 177.053 270.395 180.973 274.548C185.453 279.295 189.933 284.042 191 285.375C193 287.875 201.5 295.375 211.5 302.875C221.5 310.375 250.5 335.375 252 337.375C253.5 339.375 251.5 346.875 249.5 349.375C247.9 351.375 241.167 351.208 238 350.875C234.333 348.542 226.8 343.875 226 343.875C225 343.875 224.5 341.375 225 341.375C225.4 341.375 212.5 332.708 206 328.375C206.5 334.375 197 368.875 190.5 378.375C184 387.875 174.5 384.875 172.5 376.875C170.9 370.475 173.167 360.875 174.5 356.875C160.5 374.075 151.667 374.042 149 371.875C147.167 370.208 143.5 366.075 143.5 362.875C143.5 358.875 148.5 348.375 153 345.875C156.6 343.875 161.167 337.375 163 334.375L164.5 335.375C164.833 334.875 165.3 333.675 164.5 332.875C163.965 332.34 164.718 331.089 165.764 329.353C166.673 327.843 167.803 325.967 168.5 323.875C169.7 320.275 171.667 318.042 172.5 317.375C171.333 316.875 168.9 315.375 168.5 313.375C168.449 313.121 168.404 312.852 168.356 312.569C167.933 310.073 167.34 306.57 161.5 303.875C153.595 303.267 146.985 299.886 141.106 296.879C137.317 294.941 133.832 293.159 130.5 292.375C123.7 290.775 116 294.708 113 296.875C113.5 301.375 132 329.875 134.5 332.875C137 335.875 137.5 347.875 130.5 352.875C123.5 357.875 116 351.875 105 337.875C94.4605 324.461 84.839 313.801 67.7795 294.901C67.0341 294.075 66.2745 293.233 65.5 292.375C50.7 275.975 44.3333 263.208 43 258.875C40.1667 258.542 33.9 257.775 31.5 257.375C29.1 256.975 9.5 260.208 0 261.875V686H480.375V0ZM253.5 368.875C253.5 367.726 252.812 365.821 252.178 364.344C251.884 363.661 252.374 362.875 253.117 362.875H257.5C258.627 362.875 267.776 367.242 278.403 372.314C291.357 378.496 306.507 385.727 312 387.375C318.124 389.212 322.748 393.299 327.709 397.685L327.709 397.685C330.849 400.46 334.124 403.356 338 405.875C342.506 408.804 347.62 412.646 352.246 416.121L352.247 416.122C357.888 420.359 362.802 424.051 365 424.875C366.288 425.358 370.685 430.246 376.824 437.07L376.825 437.071C389.753 451.443 410.405 474.4 426 482.875C444.4 492.875 459 508.042 464 514.375V625.875C456.333 615.542 439.2 590.975 432 575.375C424.8 559.775 410.667 545.875 404.5 540.875C394.071 538.358 386.745 531.443 380.477 525.526C378.031 523.217 375.746 521.059 373.5 519.375C357.253 509.005 349.61 500.546 344.291 494.66L344.291 494.66L344.291 494.66C341.917 492.033 340.006 489.918 338 488.375C331.5 483.375 317.5 480.375 307 479.875C298.6 479.475 293.833 476.042 292.5 474.375C291.167 474.208 286.2 473.975 277 474.375C267.8 474.775 263.167 468.542 262 465.375C255.106 466.101 252.688 463.667 251.307 462.277C250.785 461.751 250.412 461.375 250 461.375C248.5 461.375 247 459.375 246 457.875C245.2 456.675 248.333 454.042 250 452.875C242 456.075 237 452.542 235.5 450.375C233.333 449.542 229.4 447.375 231 445.375C233 442.875 245.5 435.375 248 433.875C249.115 433.206 251.124 431.444 253.319 429.519C256.046 427.127 259.061 424.483 261 423.375C263.603 421.887 267.036 420.676 273.768 418.302C276.087 417.484 278.797 416.528 282 415.375C292 411.775 301.167 412.542 304.5 413.375C300.833 408.875 290.2 398.475 277 392.875C260.5 385.875 254.5 377.875 253.5 375.875C252.817 374.508 253.067 372.674 253.294 371.012C253.4 370.242 253.5 369.508 253.5 368.875Z" fill="#9FC700"/>
</g>
</svg>
