<?xml version="1.0" standalone="no"?>
<!DOCTYPE svg PUBLIC "-//W3C//DTD SVG 20010904//EN"
 "http://www.w3.org/TR/2001/REC-SVG-20010904/DTD/svg10.dtd">
<svg version="1.0" xmlns="http://www.w3.org/2000/svg"
 width="411.000000pt" height="607.000000pt" viewBox="0 0 411.000000 607.000000"
 preserveAspectRatio="xMidYMid meet">

<g transform="translate(0.000000,607.000000) scale(0.100000,-0.100000)"
fill="#000000" stroke="none">
<path d="M0 4452 c0 -37 8 -44 33 -30 15 8 22 8 25 0 2 -7 11 -8 28 -2 18 7
31 6 48 -5 13 -9 46 -16 74 -16 29 -1 52 -5 52 -10 0 -4 -24 -20 -53 -35 -53
-26 -86 -67 -136 -166 -11 -22 -17 -26 -31 -18 -39 21 -40 15 -40 -191 l0
-201 38 6 c119 19 224 26 278 21 l62 -7 47 -89 c35 -67 71 -115 143 -192 108
-114 171 -187 255 -296 71 -91 199 -229 235 -253 63 -42 132 -2 132 76 0 56
-10 70 -36 51 -25 -19 -61 -21 -45 -2 6 8 7 18 3 23 -4 4 1 2 11 -5 15 -12 17
-12 11 2 -3 8 -1 25 6 36 8 16 8 27 -1 43 l-12 23 -10 -23 c-12 -26 -20 -27
-37 -8 -9 11 -9 19 0 33 10 16 11 16 6 -5 -3 -15 0 -22 7 -19 16 5 21 47 9 59
-7 7 -20 1 -39 -20 -28 -31 -29 -31 -41 -11 -9 14 -19 18 -33 14 -18 -6 -20
-4 -14 14 5 16 3 19 -8 15 -20 -7 -87 63 -94 100 -5 26 -7 27 -14 11 -6 -18
-8 -17 -18 9 -7 16 -10 35 -7 43 3 7 2 12 -2 12 -33 -5 -41 2 -32 27 12 31 12
34 1 34 -5 0 -12 -8 -14 -17 -3 -10 -5 -1 -6 20 0 20 -5 37 -11 37 -5 0 -10
18 -10 40 0 24 -4 39 -11 37 -6 -1 -16 12 -22 28 -5 17 -16 37 -23 46 -8 8
-14 20 -14 26 0 6 -15 21 -32 33 -32 22 -68 71 -102 138 -10 18 -24 36 -32 39
-7 3 -14 14 -14 26 0 11 -11 35 -25 53 -14 18 -25 40 -25 48 0 11 -10 16 -31
16 -26 0 -31 3 -26 20 3 11 1 18 -3 15 -5 -3 -14 4 -20 15 -6 11 -17 20 -25
20 -9 0 -12 6 -9 15 4 9 0 15 -10 15 -9 0 -16 7 -16 16 0 8 -4 12 -10 9 -6 -3
-10 1 -10 9 0 9 -7 16 -16 16 -10 0 -14 -6 -10 -15 3 -8 1 -15 -4 -15 -6 0
-10 6 -10 13 0 21 -36 47 -49 34 -8 -8 -11 -6 -11 6 0 9 -5 17 -11 17 -6 0 -8
7 -5 16 5 14 4 15 -9 4 -9 -7 -15 -8 -15 -2 0 15 58 61 88 69 60 17 207 7 230
-14 20 -19 36 -16 17 3 -9 9 -82 34 -163 56 -81 21 -163 44 -182 49 -19 6 -53
15 -75 20 -22 5 -48 12 -57 15 -14 4 -18 -1 -18 -24z m817 -1044 c-3 -8 -6 -5
-6 6 -1 11 2 17 5 13 3 -3 4 -12 1 -19z m280 -290 c-3 -7 -5 -2 -5 12 0 14 2
19 5 13 2 -7 2 -19 0 -25z m68 -68 c-9 -16 -22 -30 -30 -30 -11 0 -7 9 12 30
14 17 28 30 30 30 2 0 -3 -13 -12 -30z"/>
<path d="M36 4347 c-37 -48 -32 -54 9 -14 36 35 42 47 26 47 -6 0 -21 -15 -35
-33z"/>
<path d="M90 4350 c0 -5 5 -10 10 -10 6 0 10 5 10 10 0 6 -4 10 -10 10 -5 0
-10 -4 -10 -10z"/>
<path d="M1 4274 c0 -11 3 -14 6 -6 3 7 2 16 -1 19 -3 4 -6 -2 -5 -13z"/>
<path d="M575 4261 c-22 -25 -19 -32 11 -21 33 13 57 13 49 -1 -4 -6 2 -5 13
2 25 16 23 19 -22 29 -27 6 -38 4 -51 -9z"/>
<path d="M674 4223 c2 -2 -7 -15 -20 -28 -13 -13 -24 -29 -24 -35 0 -6 8 -4
17 6 10 9 32 23 50 31 18 7 33 15 33 17 0 2 -13 6 -30 8 -16 3 -28 3 -26 1z"/>
<path d="M1500 3710 c0 -5 5 -10 11 -10 5 0 7 5 4 10 -3 6 -8 10 -11 10 -2 0
-4 -4 -4 -10z"/>
<path d="M1048 3693 c-9 -2 -27 -20 -39 -39 -11 -19 -27 -40 -34 -47 -6 -7
-14 -37 -17 -67 -3 -30 -9 -64 -13 -75 -5 -16 -5 -17 4 -5 5 8 13 12 16 8 4
-3 31 3 60 13 76 27 113 24 207 -15 46 -18 108 -41 138 -51 30 -10 64 -21 76
-25 11 -5 33 -33 47 -63 l27 -54 -30 -59 c-16 -32 -30 -65 -30 -72 0 -7 -36
-49 -81 -95 -110 -112 -128 -158 -88 -223 14 -24 28 -34 45 -34 42 0 99 37
152 97 28 32 53 55 56 53 3 -3 -4 -25 -15 -49 -35 -79 -21 -170 32 -200 22
-12 29 -12 59 3 19 9 47 33 61 54 50 72 129 306 129 384 0 20 4 39 8 42 11 7
47 -17 166 -107 101 -76 149 -97 196 -82 33 10 52 80 32 113 -7 10 -16 10 -38
2 l-29 -10 25 19 c38 30 17 36 -27 8 l-40 -25 -68 42 c-52 34 -63 44 -50 50
14 5 8 13 -31 38 -115 73 -131 84 -168 115 -22 18 -44 33 -50 33 -5 0 -17 6
-25 14 -9 8 -41 26 -71 41 -30 16 -87 52 -126 82 -39 29 -100 68 -135 87 -35
18 -80 42 -99 53 -76 42 -173 62 -232 46z m868 -465 l19 -21 -27 18 c-29 18
-34 25 -20 25 5 0 17 -10 28 -22z"/>
<path d="M1545 3665 c10 -17 29 -39 42 -49 24 -18 25 -18 14 0 -6 11 -24 33
-42 49 l-31 30 17 -30z"/>
<path d="M995 3394 c14 -20 25 -41 25 -47 0 -6 3 -8 6 -5 7 8 -34 88 -46 88
-5 0 2 -16 15 -36z"/>
<path d="M2035 3149 c52 -35 80 -38 105 -12 16 16 16 16 -52 -3 -16 -5 -20 -3
-15 10 8 19 2 22 -48 31 l-40 6 50 -32z"/>
<path d="M2250 2774 c0 -34 45 -77 141 -134 243 -143 309 -190 309 -220 0 -4
-26 -4 -59 -2 -40 3 -67 -1 -87 -11 l-29 -15 28 -13 c25 -11 28 -17 25 -52 -2
-23 -9 -43 -18 -47 -24 -12 -142 -48 -178 -54 -18 -3 -63 -29 -100 -57 -60
-45 -71 -50 -102 -44 -19 4 -47 8 -62 8 -16 1 -28 5 -28 9 0 5 -4 8 -10 8 -23
0 -7 -37 25 -59 28 -19 43 -22 76 -18 38 5 40 4 25 -12 -9 -10 -16 -24 -16
-32 0 -21 62 -59 96 -59 21 0 37 -10 59 -36 35 -41 77 -53 188 -54 38 0 76 -4
86 -9 10 -6 70 -19 134 -29 161 -27 223 -58 340 -169 50 -48 128 -115 172
-147 44 -33 114 -92 156 -132 57 -54 89 -76 130 -89 94 -31 170 -121 331 -390
76 -127 158 -261 183 -300 l45 -70 0 270 c0 238 -2 274 -17 295 -9 14 -20 27
-23 30 -21 16 -78 102 -84 127 -4 15 -16 52 -28 81 -18 45 -28 57 -67 76 -25
12 -89 46 -141 74 -97 52 -142 67 -240 82 -30 4 -64 11 -75 15 -42 14 -130 61
-140 73 -6 7 -20 18 -31 25 -12 7 -39 24 -60 39 -36 25 -104 52 -354 140 -76
26 -163 40 -255 39 -25 0 -27 2 -12 10 31 18 18 26 -47 31 -35 3 -82 14 -103
24 -33 17 -38 23 -35 49 6 51 20 57 125 56 127 0 252 -17 362 -46 50 -14 112
-26 139 -27 l50 -3 8 39 c11 50 -12 102 -50 119 -15 6 -30 16 -34 22 -3 5 -18
24 -32 40 -15 17 -35 48 -46 70 -14 29 -47 60 -115 109 -52 39 -97 78 -101 88
-5 18 -77 70 -169 123 -27 15 -52 31 -55 34 -3 4 -28 17 -55 29 -28 13 -74 45
-104 73 -29 27 -57 49 -62 49 -5 0 -9 -12 -9 -26z m150 -684 c0 -5 -13 -23
-29 -39 -29 -29 -31 -30 -67 -17 l-38 13 39 26 c39 26 95 37 95 17z"/>
</g>
</svg>
