<svg width="147" height="145" viewBox="0 0 147 145" fill="none" xmlns="http://www.w3.org/2000/svg">
<path d="M74.3096 22.9106C101.904 22.9106 124.268 45.1163 124.268 72.5005C124.267 99.8845 101.904 122.089 74.3096 122.089C46.7156 122.089 24.3518 99.8844 24.3516 72.5005C24.3516 45.1164 46.7154 22.9108 74.3096 22.9106Z" stroke="white" stroke-opacity="0.6" stroke-width="0.918319"/>
<path d="M73.8398 11.7319C107.914 11.7321 135.53 39.1522 135.53 72.9683C135.53 106.784 107.914 134.203 73.8398 134.204C39.7654 134.204 12.1486 106.784 12.1484 72.9683C12.1484 39.1521 39.7654 11.7319 73.8398 11.7319Z" stroke="white" stroke-opacity="0.4" stroke-width="1.01216"/>
<path d="M73.8389 0.594727C113.851 0.594727 146.279 32.7917 146.279 72.5C146.279 112.208 113.851 144.405 73.8389 144.405C33.8273 144.405 1.39941 112.208 1.39941 72.5C1.39941 32.7917 33.8273 0.594845 73.8389 0.594727Z" stroke="white" stroke-opacity="0.2" stroke-width="1.18852"/>
<path d="M36.2227 69.1595C36.2227 87.5461 51.534 97.3424 62.7394 106.114C66.6929 109.207 70.5017 112.122 74.3105 112.122C78.1193 112.122 81.9281 109.211 85.8816 106.11C97.0908 97.3462 112.398 87.5461 112.398 69.1633C112.398 50.7805 91.45 37.7325 74.3105 55.4121C57.171 37.7325 36.2227 50.7729 36.2227 69.1595Z" fill="#ECFFA0"/>
<path d="M109.965 78.6966C98.9437 68.078 85.9776 71.6175 76.9014 76.4442C59.3129 85.7977 52.7964 89.8817 43.0834 82.3584L38.9756 78.6967C40.425 80.1355 41.7829 81.351 43.0834 82.3584L61.2509 98.5526L70.1042 111.196L82.3783 107.586L99.4819 95.7864L106.723 85.7759L108.02 83.5235L109.965 78.6966Z" fill="#6D8900"/>
<path d="M62.3151 69.0437C52.2813 63.6943 43.5143 65.5042 37.0312 68.4002L39.3003 80.6278L49.462 94.9308L64.9856 107.773L76.6283 111.197L91.7207 100.924L101.213 91.89L109.317 81.2713C91.7207 89.6376 81.222 79.1238 62.3151 69.0437Z" fill="#4D6100"/>
<path d="M49.2383 49.6401C56.2016 46.4806 65.2952 47.5003 73.6172 56.0845L74.3105 56.7993L75.0039 56.0845C83.3258 47.5003 92.4195 46.4821 99.3828 49.6431C106.405 52.8309 111.433 60.3373 111.433 69.1636C111.433 78.0512 107.744 84.8774 102.624 90.6001C98.1151 95.6398 92.558 99.7634 87.4463 103.681L85.2871 105.35L85.2861 105.351C83.3011 106.908 81.4123 108.368 79.5576 109.444C77.7028 110.52 75.9718 111.157 74.3105 111.157C72.6495 111.157 70.9187 110.519 69.0635 109.443C67.6723 108.636 66.2624 107.613 64.8066 106.497L63.334 105.354C57.6738 100.923 51.1518 96.3594 45.998 90.5991C40.8774 84.8759 37.1885 78.0492 37.1885 69.1597C37.1885 60.3315 42.216 52.8265 49.2383 49.6401Z" stroke="#ECFFA0" stroke-width="1.93068"/>
<path d="M66.3984 92.2446H69.9473C70.1314 92.2446 70.2953 92.1279 70.3555 91.954L72.4075 86.0321C72.5458 85.633 73.1156 85.649 73.2314 86.0552L76.3442 96.981C76.466 97.4085 77.0763 97.3956 77.18 96.9634L78.5827 91.1185C78.6293 90.9242 78.8031 90.7873 79.0029 90.7873H83.8857" stroke="white" stroke-width="0.864209" stroke-linecap="round" stroke-linejoin="round"/>
</svg>
