<svg width="231" height="63" viewBox="0 0 231 63" fill="none" xmlns="http://www.w3.org/2000/svg">
<path d="M82.2742 16.4084V47.0002H77.3448L62.9303 26.1625H62.6763V47.0002H57.1345V16.4084H62.0938L76.4934 37.261H76.7623V16.4084H82.2742ZM98.2311 47.4483C95.9307 47.4483 93.944 46.9703 92.271 46.0143C90.608 45.0484 89.3284 43.6841 88.4321 41.9215C87.5359 40.1489 87.0878 38.0626 87.0878 35.6627C87.0878 33.3026 87.5359 31.2313 88.4321 29.4487C89.3383 27.6563 90.603 26.2621 92.2262 25.2663C93.8494 24.2605 95.7564 23.7576 97.9473 23.7576C99.3613 23.7576 100.696 23.9866 101.95 24.4447C103.215 24.8928 104.331 25.5899 105.296 26.5359C106.272 27.482 107.039 28.6869 107.597 30.1508C108.154 31.6047 108.433 33.3374 108.433 35.349V37.0071H89.6271V33.3623H103.25C103.24 32.3267 103.016 31.4055 102.578 30.5989C102.14 29.7823 101.527 29.14 100.741 28.672C99.9638 28.204 99.0576 27.9699 98.0219 27.9699C96.9166 27.9699 95.9456 28.2388 95.1091 28.7766C94.2727 29.3043 93.6204 30.0014 93.1523 30.8678C92.6943 31.7242 92.4602 32.6653 92.4503 33.691V36.8726C92.4503 38.207 92.6943 39.3522 93.1822 40.3082C93.6702 41.2543 94.3523 41.9812 95.2286 42.4891C96.105 42.987 97.1307 43.236 98.3058 43.236C99.0925 43.236 99.8045 43.1264 100.442 42.9073C101.079 42.6783 101.632 42.3447 102.1 41.9065C102.568 41.4684 102.921 40.9256 103.16 40.2784L108.209 40.846C107.891 42.1804 107.283 43.3455 106.387 44.3413C105.501 45.3272 104.365 46.094 102.981 46.6417C101.597 47.1794 100.014 47.4483 98.2311 47.4483ZM116.936 24.0563L121.567 32.5258L126.272 24.0563H131.993L125.077 35.5283L132.113 47.0002H126.422L121.567 38.7398L116.757 47.0002H111.021L118.012 35.5283L111.2 24.0563H116.936ZM162.6 26.7301H157.013C156.854 25.814 156.56 25.0024 156.132 24.2953C155.704 23.5783 155.171 22.9709 154.534 22.473C153.897 21.9751 153.17 21.6016 152.353 21.3527C151.546 21.0938 150.675 20.9643 149.739 20.9643C148.076 20.9643 146.602 21.3825 145.317 22.219C144.033 23.0456 143.027 24.2605 142.3 25.8638C141.573 27.4571 141.21 29.4039 141.21 31.7043C141.21 34.0445 141.573 36.0162 142.3 37.6195C143.037 39.2128 144.043 40.4178 145.317 41.2343C146.602 42.041 148.071 42.4443 149.724 42.4443C150.64 42.4443 151.497 42.3248 152.293 42.0858C153.1 41.8368 153.822 41.4733 154.459 40.9953C155.106 40.5174 155.649 39.9298 156.087 39.2327C156.535 38.5357 156.844 37.739 157.013 36.8428L162.6 36.8726C162.391 38.3265 161.938 39.6908 161.241 40.9655C160.554 42.2401 159.652 43.3654 158.537 44.3413C157.422 45.3073 156.117 46.0641 154.623 46.6118C153.13 47.1496 151.472 47.4184 149.649 47.4184C146.961 47.4184 144.561 46.796 142.45 45.5513C140.338 44.3065 138.675 42.509 137.46 40.1589C136.246 37.8087 135.638 34.9905 135.638 31.7043C135.638 28.4081 136.25 25.5899 137.475 23.2497C138.7 20.8996 140.368 19.1021 142.479 17.8573C144.591 16.6125 146.981 15.9901 149.649 15.9901C151.352 15.9901 152.936 16.2291 154.399 16.7071C155.863 17.1851 157.168 17.8872 158.313 18.8133C159.458 19.7295 160.399 20.8548 161.136 22.1892C161.883 23.5136 162.371 25.0273 162.6 26.7301ZM174.038 47.4632C172.584 47.4632 171.275 47.2043 170.11 46.6865C168.955 46.1587 168.039 45.382 167.361 44.3563C166.694 43.3306 166.361 42.0659 166.361 40.5622C166.361 39.2676 166.6 38.1971 167.078 37.3506C167.556 36.5042 168.208 35.827 169.034 35.3191C169.861 34.8113 170.792 34.4279 171.828 34.169C172.873 33.9001 173.954 33.7059 175.069 33.5864C176.413 33.447 177.504 33.3225 178.34 33.213C179.177 33.0935 179.784 32.9142 180.163 32.6752C180.551 32.4263 180.745 32.0429 180.745 31.525V31.4354C180.745 30.3101 180.412 29.4388 179.744 28.8214C179.077 28.204 178.116 27.8952 176.862 27.8952C175.537 27.8952 174.486 28.184 173.71 28.7616C172.943 29.3392 172.425 30.0213 172.156 30.808L167.107 30.091C167.506 28.6969 168.163 27.5318 169.079 26.5957C169.995 25.6497 171.116 24.9426 172.44 24.4746C173.765 23.9966 175.228 23.7576 176.832 23.7576C177.937 23.7576 179.037 23.887 180.133 24.146C181.228 24.4049 182.229 24.8331 183.135 25.4306C184.041 26.0181 184.768 26.8198 185.316 27.8355C185.874 28.8512 186.153 30.1209 186.153 31.6445V47.0002H180.954V43.8484H180.775C180.447 44.4857 179.983 45.0832 179.386 45.6409C178.798 46.1886 178.057 46.6317 177.16 46.9703C176.274 47.2989 175.233 47.4632 174.038 47.4632ZM175.442 43.4899C176.528 43.4899 177.469 43.2758 178.266 42.8476C179.062 42.4094 179.675 41.8318 180.103 41.1148C180.541 40.3979 180.76 39.6161 180.76 38.7697V36.066C180.591 36.2054 180.302 36.3349 179.894 36.4544C179.495 36.5739 179.047 36.6784 178.549 36.7681C178.052 36.8577 177.559 36.9374 177.071 37.0071C176.583 37.0768 176.159 37.1365 175.801 37.1863C174.994 37.2959 174.272 37.4751 173.635 37.7241C172.998 37.973 172.495 38.3216 172.126 38.7697C171.758 39.2078 171.574 39.7755 171.574 40.4725C171.574 41.4684 171.937 42.2202 172.664 42.7281C173.391 43.236 174.317 43.4899 175.442 43.4899ZM191.59 47.0002V24.0563H196.833V27.8803H197.072C197.49 26.5559 198.207 25.5351 199.223 24.8181C200.249 24.0912 201.419 23.7277 202.733 23.7277C203.032 23.7277 203.365 23.7427 203.734 23.7725C204.112 23.7924 204.426 23.8273 204.675 23.8771V28.8512C204.446 28.7716 204.082 28.7019 203.585 28.6421C203.097 28.5724 202.624 28.5376 202.165 28.5376C201.18 28.5376 200.293 28.7517 199.507 29.1799C198.73 29.5981 198.117 30.1807 197.669 30.9275C197.221 31.6744 196.997 32.5358 196.997 33.5117V47.0002H191.59ZM217.48 47.4483C215.18 47.4483 213.193 46.9703 211.52 46.0143C209.857 45.0484 208.577 43.6841 207.681 41.9215C206.785 40.1489 206.337 38.0626 206.337 35.6627C206.337 33.3026 206.785 31.2313 207.681 29.4487C208.587 27.6563 209.852 26.2621 211.475 25.2663C213.098 24.2605 215.005 23.7576 217.196 23.7576C218.61 23.7576 219.945 23.9866 221.199 24.4447C222.464 24.8928 223.579 25.5899 224.545 26.5359C225.521 27.482 226.288 28.6869 226.846 30.1508C227.403 31.6047 227.682 33.3374 227.682 35.349V37.0071H208.876V33.3623H222.499C222.489 32.3267 222.265 31.4055 221.827 30.5989C221.389 29.7823 220.776 29.14 219.99 28.672C219.213 28.204 218.307 27.9699 217.271 27.9699C216.166 27.9699 215.195 28.2388 214.358 28.7766C213.522 29.3043 212.869 30.0014 212.401 30.8678C211.943 31.7242 211.709 32.6653 211.699 33.691V36.8726C211.699 38.207 211.943 39.3522 212.431 40.3082C212.919 41.2543 213.601 41.9812 214.478 42.4891C215.354 42.987 216.38 43.236 217.555 43.236C218.341 43.236 219.053 43.1264 219.691 42.9073C220.328 42.6783 220.881 42.3447 221.349 41.9065C221.817 41.4684 222.17 40.9256 222.409 40.2784L227.458 40.846C227.14 42.1804 226.532 43.3455 225.636 44.3413C224.75 45.3272 223.614 46.094 222.23 46.6417C220.846 47.1794 219.263 47.4483 217.48 47.4483Z" fill="black"/>
<path fill-rule="evenodd" clip-rule="evenodd" d="M18.5742 27.8671C22.6465 30.8125 28.3573 30.0723 31.5345 26.1069L41.7578 13.3478C37.6679 10.0707 31.6959 10.7297 28.4188 14.8196L18.471 27.235C18.0521 25.1178 16.9125 23.1313 15.0964 21.6761L2.33727 11.4529C-0.939751 15.5427 -0.280793 21.5148 3.80909 24.7918L16.5683 35.0151C18.2461 32.9211 18.8922 30.3336 18.5742 27.8671ZM25.1893 29.7634C23.5103 31.8589 22.8646 34.4483 23.184 36.9163C19.1116 33.9704 13.4005 34.7104 10.223 38.676L-0.000249711 51.4352C4.08963 54.7122 10.0617 54.0533 13.3387 49.9634L23.2873 37.5471C23.7067 39.6629 24.8461 41.6481 26.6611 43.1024L39.4203 53.3257C42.6973 49.2358 42.0384 43.2638 37.9485 39.9867L25.1893 29.7634Z" fill="#9FC700"/>
</svg>
