<svg width="20" height="15" viewBox="0 0 20 15" fill="none" xmlns="http://www.w3.org/2000/svg">
<path fill-rule="evenodd" clip-rule="evenodd" d="M1.60632 0C0.824886 0 0.191406 0.63348 0.191406 1.41492V12.7343C0.191406 13.5157 0.824887 14.1492 1.60632 14.1492H18.5853C19.3668 14.1492 20.0002 13.5157 20.0002 12.7343V1.41492C20.0002 0.63348 19.3668 0 18.5853 0H1.60632ZM2.48622 2.25179C2.16701 2.02647 1.72559 2.10258 1.50027 2.42178C1.27495 2.74099 1.35106 3.18241 1.67026 3.40773L9.28014 8.77942C9.76932 9.12472 10.4229 9.12472 10.9121 8.77942L18.5219 3.40773C18.8412 3.18241 18.9173 2.74099 18.6919 2.42178C18.4666 2.10258 18.0252 2.02647 17.706 2.25179L10.0961 7.62348L2.48622 2.25179Z" fill="#9FC700"/>
</svg>
