<svg width="47" height="47" viewBox="0 0 47 47" fill="none" xmlns="http://www.w3.org/2000/svg">
<rect width="46.3718" height="46.3718" rx="23.1859" fill="white"/>
<path d="M22.3992 14.9334C23.1099 14.9329 23.8158 15.0495 24.4886 15.2787C23.851 15.9378 23.4495 16.7893 23.3464 17.7005C23.2434 18.6117 23.4447 19.5313 23.9189 20.3161C24.3932 21.101 25.1137 21.7069 25.9683 22.0394C26.8229 22.3719 27.7634 22.4124 28.6434 22.1545L28.8622 22.0825V24.6529C28.8623 24.76 28.8811 24.8662 28.9176 24.9668L28.9601 25.0656L30.5445 28.2353C30.6179 28.3821 30.6546 28.5445 30.6515 28.7086C30.6485 28.8727 30.6056 29.0336 30.5268 29.1776C30.4479 29.3215 30.3353 29.4442 30.1987 29.5351C30.062 29.626 29.9053 29.6825 29.7421 29.6996L29.6359 29.7052H15.1624C14.9982 29.7052 14.8365 29.6654 14.691 29.5893C14.5455 29.5131 14.4207 29.4028 14.3272 29.2678C14.2337 29.1329 14.1743 28.9772 14.1542 28.8143C14.134 28.6513 14.1536 28.4859 14.2114 28.3322L14.2539 28.2353L15.8392 25.0656C15.8868 24.9698 15.9174 24.8664 15.9297 24.76L15.9361 24.6538V21.3965C15.9361 19.6824 16.6171 18.0385 17.8291 16.8264C19.0412 15.6143 20.6851 14.9334 22.3992 14.9334ZM27.4773 15.8567C28.0895 15.8567 28.6766 16.0999 29.1094 16.5328C29.5423 16.9656 29.7855 17.5528 29.7855 18.1649C29.7855 18.7771 29.5423 19.3642 29.1094 19.7971C28.6766 20.23 28.0895 20.4732 27.4773 20.4732C26.8651 20.4732 26.278 20.23 25.8451 19.7971C25.4122 19.3642 25.169 18.7771 25.169 18.1649C25.169 17.5528 25.4122 16.9656 25.8451 16.5328C26.278 16.0999 26.8651 15.8567 27.4773 15.8567ZM22.3992 32.476C21.8261 32.4763 21.2671 32.2988 20.7991 31.9681C20.3311 31.6374 19.9773 31.1696 19.7863 30.6294H25.0121C24.8211 31.1696 24.4672 31.6374 23.9992 31.9681C23.5312 32.2988 22.9722 32.4763 22.3992 32.476Z" fill="#9FC700"/>
</svg>
