<svg width="47" height="47" viewBox="0 0 47 47" fill="none" xmlns="http://www.w3.org/2000/svg">
<rect width="46.3718" height="46.3718" rx="23.1859" fill="white"/>
<path d="M21.6715 32.6155C21.2574 32.6155 20.901 32.4774 20.6022 32.2013C20.3035 31.9253 20.1231 31.5879 20.0611 31.1891L19.8541 29.6707C19.6547 29.594 19.467 29.502 19.2909 29.3946C19.1148 29.2873 18.9421 29.1722 18.7728 29.0495L17.3464 29.6477C16.963 29.8164 16.5796 29.8317 16.1962 29.6937C15.8127 29.5557 15.5136 29.3103 15.2989 28.9575L14.2176 27.071C14.0029 26.7183 13.9416 26.3425 14.0336 25.9438C14.1256 25.545 14.3327 25.2152 14.6548 24.9545L15.8741 24.0343C15.8587 23.9269 15.8511 23.8232 15.8511 23.7232V23.1021C15.8511 23.0027 15.8587 22.8993 15.8741 22.7919L14.6548 21.8717C14.3327 21.611 14.1256 21.2812 14.0336 20.8825C13.9416 20.4837 14.0029 20.1079 14.2176 19.7552L15.2989 17.8687C15.5136 17.5159 15.8127 17.2705 16.1962 17.1325C16.5796 16.9945 16.963 17.0098 17.3464 17.1785L18.7728 17.7767C18.9415 17.654 19.1179 17.5389 19.3019 17.4316C19.486 17.3242 19.67 17.2322 19.8541 17.1555L20.0611 15.6371C20.1225 15.2384 20.3029 14.9009 20.6022 14.6249C20.9016 14.3488 21.2581 14.2108 21.6715 14.2108H23.8341C24.2482 14.2108 24.605 14.3488 24.9043 14.6249C25.2037 14.9009 25.3838 15.2384 25.4445 15.6371L25.6516 17.1555C25.8509 17.2322 26.039 17.3242 26.2157 17.4316C26.3924 17.5389 26.5647 17.654 26.7328 17.7767L28.1592 17.1785C28.5426 17.0098 28.9261 16.9945 29.3095 17.1325C29.6929 17.2705 29.992 17.5159 30.2067 17.8687L31.288 19.7552C31.5027 20.1079 31.5641 20.4837 31.4721 20.8825C31.38 21.2812 31.173 21.611 30.8509 21.8717L29.6316 22.7919C29.6469 22.8993 29.6546 23.003 29.6546 23.103V23.7232C29.6546 23.8232 29.6393 23.9269 29.6086 24.0343L30.8279 24.9545C31.15 25.2152 31.357 25.545 31.449 25.9438C31.5411 26.3425 31.4797 26.7183 31.265 27.071L30.1607 28.9575C29.946 29.3103 29.6469 29.5557 29.2635 29.6937C28.8801 29.8317 28.4966 29.8164 28.1132 29.6477L26.7328 29.0495C26.5641 29.1722 26.3878 29.2873 26.2037 29.3946C26.0197 29.502 25.8356 29.594 25.6516 29.6707L25.4445 31.1891C25.3832 31.5879 25.2031 31.9253 24.9043 32.2013C24.6056 32.4774 24.2488 32.6155 23.8341 32.6155H21.6715ZM22.7988 26.6339C23.6884 26.6339 24.4476 26.3195 25.0764 25.6907C25.7052 25.0619 26.0197 24.3027 26.0197 23.4131C26.0197 22.5235 25.7052 21.7643 25.0764 21.1355C24.4476 20.5067 23.6884 20.1923 22.7988 20.1923C21.8939 20.1923 21.1308 20.5067 20.5093 21.1355C19.8878 21.7643 19.5774 22.5235 19.578 23.4131C19.5786 24.3027 19.8894 25.0619 20.5102 25.6907C21.1311 26.3195 21.8939 26.6339 22.7988 26.6339Z" fill="#9FC700"/>
</svg>
