<svg width="42" height="43" viewBox="0 0 42 43" fill="none" xmlns="http://www.w3.org/2000/svg">
<path fill-rule="evenodd" clip-rule="evenodd" d="M18.5736 16.8666C22.646 19.8125 28.3571 19.0724 31.5345 15.1069L41.7578 2.3477C37.6679 -0.929327 31.6959 -0.270368 28.4188 3.81952L18.4706 16.2354C18.0518 14.1181 16.9122 12.1313 15.0959 10.6761L2.33677 0.452804C-0.940251 4.54269 -0.281292 10.5147 3.80859 13.7918L16.5678 24.0151C18.2457 21.9209 18.8917 19.3333 18.5736 16.8666ZM25.1888 18.7636C23.5098 20.8591 22.864 23.4486 23.1836 25.9166C19.1111 22.9703 13.3996 23.7102 10.2221 27.676L-0.00123772 40.4351C4.08865 43.7121 10.0607 43.0532 13.3377 38.9633L23.2866 26.5466C23.706 28.6627 24.8454 30.6481 26.6606 32.1026L39.4198 42.3259C42.6968 38.236 42.0379 32.2639 37.948 28.9869L25.1888 18.7636Z" fill="#9FC700"/>
</svg>
