<svg width="12" height="11" viewBox="0 0 12 11" fill="none" xmlns="http://www.w3.org/2000/svg">
<path d="M2.66242 9.56593C2.54059 9.56593 2.43854 9.52465 2.35626 9.44209C2.27399 9.35953 2.23271 9.25747 2.23242 9.13593V8.09318C2.23242 7.97851 2.25392 7.86915 2.29692 7.76509C2.33992 7.66103 2.40084 7.56972 2.47967 7.49118L7.90842 2.07318C7.99442 1.99434 8.08945 1.93343 8.19351 1.89043C8.29757 1.84743 8.40679 1.82593 8.52117 1.82593C8.63555 1.82593 8.74663 1.84743 8.85442 1.89043C8.96221 1.93343 9.05537 1.99793 9.13392 2.08393L9.72517 2.68593C9.81117 2.76476 9.87381 2.85793 9.91308 2.96543C9.95235 3.07293 9.97213 3.18043 9.97242 3.28793C9.97242 3.40259 9.95264 3.51196 9.91308 3.61602C9.87352 3.72008 9.81088 3.81496 9.72517 3.90068L4.30717 9.31868C4.22834 9.39751 4.13689 9.45843 4.03283 9.50143C3.92877 9.54443 3.81955 9.56593 3.70517 9.56593H2.66242ZM8.51042 3.88993L9.11242 3.28793L8.51042 2.68593L7.90842 3.28793L8.51042 3.88993Z" fill="white"/>
</svg>
